HIERARCHY
ROOT Hips
{
	OFFSET 0.000000 0.000000 0.000000 
	CHANNELS 6 Xposition Yposition Zposition Zrotation Yrotation Xrotation
	JOINT LeftUpLeg
	{
		OFFSET 1.363060 -1.794630 0.839290 
		CHANNELS 3 Zrotation Yrotation Xrotation
		JOINT LeftLeg
		{
			OFFSET 2.448110 -6.726130 0.000000 
			CHANNELS 3 Zrotation Yrotation Xrotation
			JOINT LeftFoot
			{
				OFFSET 2.562200 -7.039590 0.000000 
				CHANNELS 3 Zrotation Yrotation Xrotation
				JOINT LeftToeBase
				{
					OFFSET 0.157640 -0.433110 2.322550 
					CHANNELS 3 Zrotation Yrotation Xrotation
					End Site
					{
						OFFSET 0.000000 0.000000 0.000000 
					}
				}
			}
		}
	}
	JOINT RightUpLeg
	{
		OFFSET -1.305520 -1.794630 0.839290 
		CHANNELS 3 Zrotation Yrotation Xrotation
		JOINT RightLeg
		{
			OFFSET -2.542530 -6.985550 0.000000 
			CHANNELS 3 Zrotation Yrotation Xrotation
			JOINT RightFoot
			{
				OFFSET -2.568260 -7.056230 0.000000 
				CHANNELS 3 Zrotation Yrotation Xrotation
				JOINT RightToeBase
				{
					OFFSET -0.164730 -0.452590 2.363150 
					CHANNELS 3 Zrotation Yrotation Xrotation
					End Site
					{
						OFFSET 0.000000 0.000000 0.000000 
					}
				}
			}
		}
	}
	JOINT Spine
	{
		OFFSET 0.028270 2.035590 -0.193380 
		CHANNELS 3 Zrotation Yrotation Xrotation
		JOINT Spine1
		{
			OFFSET 0.056720 2.048850 -0.042750 
			CHANNELS 3 Zrotation Yrotation Xrotation
			JOINT Neck1
			{
				OFFSET -0.054170 1.746240 0.172020 
				CHANNELS 3 Zrotation Yrotation Xrotation
				JOINT Head
				{
					OFFSET 0.104070 1.761360 -0.123970 
					CHANNELS 3 Zrotation Yrotation Xrotation
					End Site
					{
						OFFSET 0.000000 0.000000 0.000000 
					}
				}
			}
			JOINT LeftArm
			{
				OFFSET 3.362410 1.200890 -0.311210 
				CHANNELS 3 Zrotation Yrotation Xrotation
				JOINT LeftForeArm
				{
					OFFSET 4.983000 -0.000000 -0.000000 
					CHANNELS 3 Zrotation Yrotation Xrotation
					JOINT LeftHand
					{
						OFFSET 3.483560 -0.000000 -0.000000 
						CHANNELS 3 Zrotation Yrotation Xrotation
						JOINT LeftHandIndex1
						{
							OFFSET 0.715260 -0.000000 -0.000000 
							CHANNELS 3 Zrotation Yrotation Xrotation
							End Site
							{
								OFFSET 0.000000 0.000000 0.000000 
							}
						}
					}
				}
			}
			JOINT RightArm
			{
				OFFSET -3.136600 1.374050 -0.404650 
				CHANNELS 3 Zrotation Yrotation Xrotation
				JOINT RightForeArm
				{
					OFFSET -5.241900 -0.000000 -0.000000 
					CHANNELS 3 Zrotation Yrotation Xrotation
					JOINT RightHand
					{
						OFFSET -3.444170 -0.000000 -0.000000 
						CHANNELS 3 Zrotation Yrotation Xrotation
						JOINT RightHandIndex1
						{
							OFFSET -0.622530 -0.000000 -0.000000 
							CHANNELS 3 Zrotation Yrotation Xrotation
							End Site
							{
								OFFSET 0.000000 0.000000 0.000000 
							}
						}
					}
				}
			}
		}
	}
}
MOTION
Frames: 15
Frame Time: 0.041667
0.569825 17.808557 -14.086937 -1.979896 -1.846898 6.763815 -14.274008 3.972633 -14.300162 -0.437356 5.713982 15.789573 -0.692658 4.984208 -1.042481 0.027000 -1.061700 -2.918600 19.909315 0.480742 -12.219674 -0.183968 -6.467717 18.392386 -0.382422 0.556011 -4.394216 -0.518500 -4.614900 12.813300 1.563482 -0.972142 -2.446046 1.447840 -0.834251 7.522985 3.349228 -0.170851 22.748263 0.581900 0.298000 8.844900 -95.530347 -6.486714 33.461490 7.802839 -17.627968 -1.287246 -0.105342 -0.708155 -4.316022 -7.125000 0.000000 0.000000 92.505023 3.743631 13.926737 -9.500792 21.212976 -2.050190 0.760898 0.947417 31.820187 7.125000 0.000000 0.000000 
0.569318 17.807948 -14.089981 -1.990049 -1.857844 6.764126 -14.261250 3.932946 -14.300300 -0.435750 5.720103 15.803995 -0.707270 5.049997 -1.063375 0.022600 -0.970000 -2.666400 19.920980 0.489518 -12.229840 -0.183501 -6.467877 18.391596 -0.384161 0.566190 -4.397165 -0.526100 -4.648300 12.908100 1.561404 -0.972569 -2.443611 1.424974 -0.832039 7.528052 3.363911 -0.174975 22.764633 0.591500 0.296500 8.841000 -95.522673 -6.496013 33.365403 7.773067 -17.574829 -1.278079 -0.105141 -0.707915 -4.224757 -7.125000 0.000000 0.000000 92.516592 3.750812 13.900612 -9.513115 21.234220 -2.055720 0.759558 0.947938 31.799962 7.125000 0.000000 0.000000 
0.568303 17.807441 -14.092924 -1.990474 -1.856289 6.765252 -14.258998 3.919672 -14.311598 -0.434258 5.726154 15.818729 -0.713948 5.080442 -1.069457 0.017000 -0.840700 -2.310700 19.927576 0.486597 -12.240729 -0.183374 -6.467925 18.390857 -0.381001 0.548841 -4.386164 -0.514700 -4.598200 12.765900 1.564106 -0.976988 -2.436939 1.432753 -0.835874 7.553079 3.341718 -0.174177 22.816296 0.580700 0.296700 8.875300 -95.546377 -6.519019 33.289242 7.736636 -17.510521 -1.264420 -0.109041 -0.707814 -4.175411 -7.125000 0.000000 0.000000 92.500710 3.801113 13.879400 -9.518399 21.240403 -2.056759 0.759614 0.950181 31.795622 7.125000 0.000000 0.000000 
0.567897 17.807238 -14.095866 -2.011045 -1.873541 6.763505 -14.235304 3.872217 -14.304245 -0.432357 5.732465 15.833839 -0.732444 5.163251 -1.090552 0.015900 -0.813300 -2.235200 19.949293 0.495868 -12.246707 -0.182763 -6.467882 18.389677 -0.384350 0.570711 -4.376519 -0.520700 -4.624500 12.840500 1.565198 -0.973807 -2.435380 1.430375 -0.832828 7.555183 3.421465 -0.203170 22.873028 0.631100 0.282600 8.903700 -95.560036 -6.505437 33.224144 7.717260 -17.475401 -1.258647 -0.108260 -0.707797 -4.142939 -7.125000 0.000000 0.000000 92.493775 3.814729 13.874563 -9.521991 21.246195 -2.057622 0.760022 0.951254 31.788557 7.125000 0.000000 0.000000 
0.567288 17.806832 -14.098707 -2.024084 -1.884833 6.760702 -14.219851 3.843117 -14.304503 -0.430510 5.738641 15.849443 -0.743389 5.212418 -1.113367 0.013700 -0.755800 -2.077000 19.965358 0.500348 -12.253736 -0.182583 -6.468165 18.389695 -0.385169 0.577663 -4.367596 -0.520300 -4.622700 12.835600 1.566338 -0.972181 -2.433247 1.427421 -0.831228 7.557544 3.445527 -0.214851 22.913583 0.647400 0.277000 8.923700 -95.572830 -6.495341 33.171698 7.695073 -17.435617 -1.251106 -0.109039 -0.707755 -4.109402 -7.125000 0.000000 0.000000 92.487422 3.833357 13.849707 -9.524294 21.248853 -2.057958 0.760437 0.952413 31.792221 7.125000 0.000000 0.000000 
0.566781 17.806426 -14.101447 -2.038756 -1.899165 6.756904 -14.202661 3.818884 -14.308276 -0.427932 5.747189 15.871642 -0.752813 5.254425 -1.143537 0.012300 -0.716500 -1.969100 19.983441 0.508355 -12.256569 -0.181906 -6.467094 18.386028 -0.385363 0.581258 -4.356304 -0.519200 -4.618000 12.822200 1.567710 -0.968610 -2.431141 1.426329 -0.828877 7.558502 3.467281 -0.225515 22.949802 0.662000 0.271900 8.941900 -95.586909 -6.480140 33.134467 7.675864 -17.401033 -1.244574 -0.109804 -0.707703 -4.082274 -7.125000 0.000000 0.000000 92.480261 3.852077 13.817770 -9.523586 21.246706 -2.057080 0.760997 0.953275 31.804196 7.125000 0.000000 0.000000 
0.566172 17.806121 -14.104288 -2.056551 -1.915951 6.753148 -14.182547 3.801701 -14.314692 -0.425254 5.755590 15.894089 -0.760652 5.289259 -1.176768 0.011500 -0.693300 -1.905200 20.005036 0.519973 -12.259304 -0.181379 -6.466674 18.384299 -0.385493 0.583733 -4.346913 -0.518200 -4.613800 12.810300 1.568974 -0.963313 -2.429053 1.423915 -0.825377 7.558571 3.487490 -0.235355 22.979240 0.675200 0.267200 8.955600 -95.599857 -6.459589 33.111721 7.660135 -17.372652 -1.239258 -0.110574 -0.707664 -4.060061 -7.125000 0.000000 0.000000 92.474978 3.870077 13.774573 -9.519321 21.238862 -2.055162 0.761642 0.953463 31.828112 7.125000 0.000000 0.000000 
0.565462 17.805716 -14.106926 -2.073129 -1.934666 6.749274 -14.163887 3.792417 -14.324192 -0.422318 5.764585 15.918113 -0.766542 5.315771 -1.211582 0.011100 -0.679300 -1.866800 20.025585 0.532103 -12.261667 -0.180956 -6.466641 18.383308 -0.385441 0.585784 -4.337798 -0.516400 -4.606000 12.788000 1.570058 -0.957287 -2.426409 1.421963 -0.821754 7.560991 3.501743 -0.243309 23.003515 0.684200 0.263600 8.966200 -95.613758 -6.437089 33.098344 7.646329 -17.347823 -1.234410 -0.111523 -0.707669 -4.038016 -7.125000 0.000000 0.000000 92.470070 3.889368 13.724268 -9.511969 21.226317 -2.052343 0.762395 0.953083 31.859529 7.125000 0.000000 0.000000 
0.564853 17.805411 -14.109462 -2.087584 -1.954936 6.746274 -14.147826 3.788847 -14.335513 -0.419325 5.773406 15.942073 -0.771846 5.338941 -1.245828 0.010900 -0.673800 -1.851800 20.043547 0.543579 -12.265961 -0.180716 -6.467118 18.383775 -0.385777 0.589684 -4.328813 -0.514900 -4.599300 12.769000 1.570948 -0.951642 -2.423559 1.421255 -0.818500 7.565176 3.517606 -0.251312 23.027674 0.693900 0.260100 8.976100 -95.629676 -6.412159 33.087641 7.634194 -17.326230 -1.230459 -0.112202 -0.707661 -4.017766 -7.125000 0.000000 0.000000 92.464978 3.908167 13.670658 -9.502905 21.211187 -2.049037 0.763136 0.952216 31.897733 7.125000 0.000000 0.000000 
0.564245 17.805107 -14.111897 -2.099229 -1.976095 6.744848 -14.134948 3.788710 -14.348272 -0.416609 5.781502 15.964046 -0.776960 5.361569 -1.274705 0.010800 -0.671100 -1.844200 20.058135 0.551705 -12.273945 -0.180766 -6.468513 18.386681 -0.387164 0.599533 -4.319764 -0.514200 -4.596000 12.759600 1.571412 -0.946940 -2.419943 1.420290 -0.815942 7.574977 3.528344 -0.257981 23.056531 0.700000 0.257500 8.989200 -95.646743 -6.389600 33.074713 7.622288 -17.305454 -1.226546 -0.112758 -0.707698 -3.990054 -7.125000 0.000000 0.000000 92.461117 3.929914 13.615283 -9.491391 21.192523 -2.044935 0.764118 0.950815 31.942132 7.125000 0.000000 0.000000 
0.563636 17.804802 -14.114130 -2.106800 -1.997833 6.744597 -14.126978 3.790423 -14.360884 -0.414191 5.788757 15.983438 -0.781800 5.383418 -1.297866 0.010700 -0.669100 -1.838700 20.067480 0.554231 -12.286510 -0.181132 -6.470787 18.392026 -0.389554 0.615779 -4.308991 -0.513400 -4.592700 12.750500 1.571093 -0.942990 -2.416883 1.417722 -0.813799 7.584500 3.537211 -0.264650 23.092204 0.704300 0.255400 9.005500 -95.663347 -6.364029 33.063247 7.611526 -17.286723 -1.223138 -0.113253 -0.707766 -3.959848 -7.125000 0.000000 0.000000 92.460482 3.950455 13.554730 -9.478018 21.170976 -2.040151 0.765073 0.949374 31.994412 7.125000 0.000000 0.000000 
0.563128 17.804600 -14.116362 -2.112959 -2.019081 6.745626 -14.120386 3.793095 -14.374440 -0.412104 5.795041 16.000291 -0.786278 5.403396 -1.315026 0.010700 -0.666400 -1.831300 20.075002 0.555680 -12.301614 -0.181671 -6.473454 18.398730 -0.392396 0.635077 -4.296964 -0.513700 -4.594000 12.754000 1.570743 -0.940138 -2.414125 1.415713 -0.812437 7.593967 3.542768 -0.270511 23.135487 0.706600 0.253800 9.026300 -95.680882 -6.338079 33.051930 7.601353 -17.268993 -1.220042 -0.113634 -0.707729 -3.924952 -7.125000 0.000000 0.000000 92.459800 3.969291 13.497377 -9.464632 21.149404 -2.035256 0.766135 0.948079 32.044704 7.125000 0.000000 0.000000 
0.562723 17.804295 -14.118493 -2.118332 -2.039559 6.747195 -14.115118 3.797956 -14.388965 -0.410213 5.800835 16.015495 -0.790286 5.421055 -1.327279 0.010600 -0.665300 -1.828400 20.081244 0.554873 -12.317814 -0.182221 -6.476100 18.405071 -0.395738 0.657069 -4.283387 -0.514100 -4.595900 12.759500 1.570037 -0.937046 -2.412031 1.412317 -0.810955 7.601055 3.542764 -0.276907 23.182329 0.705100 0.252200 9.048100 -95.697443 -6.308294 33.046700 7.592486 -17.253537 -1.217422 -0.113982 -0.707653 -3.888330 -7.125000 0.000000 0.000000 92.461176 3.984619 13.435454 -9.451449 21.127889 -2.030324 0.767061 0.946996 32.098733 7.125000 0.000000 0.000000 
0.562317 17.804092 -14.120623 -2.124476 -2.059081 6.748527 -14.108879 3.802967 -14.403396 -0.408328 5.806324 16.030149 -0.794116 5.438239 -1.335030 0.010700 -0.667800 -1.835200 20.088175 0.554379 -12.332004 -0.182488 -6.477834 18.409278 -0.398729 0.677854 -4.268950 -0.514700 -4.598600 12.767000 1.569364 -0.934362 -2.409815 1.408605 -0.809610 7.608426 3.540453 -0.282980 23.231892 0.702200 0.250800 9.071600 -95.714004 -6.279351 33.044021 7.584343 -17.239411 -1.215331 -0.113965 -0.707543 -3.849238 -7.125000 0.000000 0.000000 92.463722 4.001048 13.373333 -9.438424 21.106643 -2.025485 0.767578 0.946365 32.148970 7.125000 0.000000 0.000000 
0.562012 17.803889 -14.122754 -2.133407 -2.076795 6.748674 -14.099780 3.809939 -14.417062 -0.406389 5.811777 16.044642 -0.797344 5.452563 -1.339829 0.010800 -0.670000 -1.841300 20.098101 0.551905 -12.342943 -0.182408 -6.478473 18.410442 -0.401857 0.699335 -4.253865 -0.516500 -4.606300 12.789000 1.568839 -0.932152 -2.407204 1.403099 -0.808323 7.616858 3.536073 -0.288810 23.279610 0.698200 0.249500 9.092700 -95.730501 -6.250054 33.049494 7.577229 -17.226848 -1.213410 -0.113905 -0.707482 -3.821416 -7.125000 0.000000 0.000000 92.466502 4.015067 13.313706 -9.427108 21.088345 -2.021393 0.767811 0.945885 32.193560 7.125000 0.000000 0.000000 
